HIERARCHY
ROOT Hips
{
	OFFSET -339.306915 540.749023 89.171944
	CHANNELS 6 Xposition Yposition Zposition Zrotation Yrotation Xrotation
	JOINT Spine
	{
		OFFSET 0.000000 2.080078 8.814247
		CHANNELS 6 Xposition Yposition Zposition Zrotation Yrotation Xrotation
		JOINT Spine1
		{
			OFFSET 0.000000 0.000000 8.844139
			CHANNELS 6 Xposition Yposition Zposition Zrotation Yrotation Xrotation
			JOINT Spine2
			{
				OFFSET 0.000000 0.000000 11.682266
				CHANNELS 6 Xposition Yposition Zposition Zrotation Yrotation Xrotation
				JOINT Spine3
				{
					OFFSET 0.000000 0.000000 11.746696
					CHANNELS 6 Xposition Yposition Zposition Zrotation Yrotation Xrotation
					JOINT Neck
					{
						OFFSET 0.000000 0.000000 17.658264
						CHANNELS 6 Xposition Yposition Zposition Zrotation Yrotation Xrotation
						JOINT Neck1
						{
							OFFSET 0.000000 0.000000 5.101517
							CHANNELS 6 Xposition Yposition Zposition Zrotation Yrotation Xrotation
							JOINT Head
							{
								OFFSET 0.000000 0.000000 5.101517
								CHANNELS 6 Xposition Yposition Zposition Zrotation Yrotation Xrotation
								JOINT HeadEnd
								{
									OFFSET 0.000000 0.000000 11.655090
									CHANNELS 6 Xposition Yposition Zposition Zrotation Yrotation Xrotation
									End Site
									{
										OFFSET 0.000000 0.000000 0.100006
									}
								}
							}
						}
					}
					JOINT RightShoulder
					{
						OFFSET -2.625397 0.000000 11.175217
						CHANNELS 6 Xposition Yposition Zposition Zrotation Yrotation Xrotation
						JOINT RightArm
						{
							OFFSET 0.000000 0.000000 10.434708
							CHANNELS 6 Xposition Yposition Zposition Zrotation Yrotation Xrotation
							JOINT RightForeArm
							{
								OFFSET 0.000000 0.000000 29.628418
								CHANNELS 6 Xposition Yposition Zposition Zrotation Yrotation Xrotation
								JOINT RightHand
								{
									OFFSET 0.000000 0.000000 22.857605
									CHANNELS 6 Xposition Yposition Zposition Zrotation Yrotation Xrotation
									JOINT RightHandThumb1
									{
										OFFSET -2.867310 -2.944275 3.959564
										CHANNELS 6 Xposition Yposition Zposition Zrotation Yrotation Xrotation
										JOINT RightHandThumb2
										{
											OFFSET 0.000000 0.000000 3.350403
											CHANNELS 6 Xposition Yposition Zposition Zrotation Yrotation Xrotation
											JOINT RightHandThumb3
											{
												OFFSET 0.000000 0.000000 3.756516
												CHANNELS 6 Xposition Yposition Zposition Zrotation Yrotation Xrotation
												JOINT RightHandThumb4
												{
													OFFSET 0.000000 0.000000 3.147339
													CHANNELS 6 Xposition Yposition Zposition Zrotation Yrotation Xrotation
													End Site
													{
														OFFSET 0.000000 0.000000 0.100006
													}
												}
											}
										}
									}
									JOINT RightHandIndex1
									{
										OFFSET -0.086761 -2.345276 10.030899
										CHANNELS 6 Xposition Yposition Zposition Zrotation Yrotation Xrotation
										JOINT RightHandIndex2
										{
											OFFSET 0.000000 0.000000 4.061096
											CHANNELS 6 Xposition Yposition Zposition Zrotation Yrotation Xrotation
											JOINT RightHandIndex3
											{
												OFFSET 0.000000 0.000000 3.248871
												CHANNELS 6 Xposition Yposition Zposition Zrotation Yrotation Xrotation
												JOINT RightHandIndex4
												{
													OFFSET 0.000000 0.000000 2.639709
													CHANNELS 6 Xposition Yposition Zposition Zrotation Yrotation Xrotation
													End Site
													{
														OFFSET 0.000000 0.000000 0.100006
													}
												}
											}
										}
									}
									JOINT RightHandMiddle1
									{
										OFFSET 0.104095 -0.006775 9.502945
										CHANNELS 6 Xposition Yposition Zposition Zrotation Yrotation Xrotation
										JOINT RightHandMiddle2
										{
											OFFSET 0.000000 0.000000 4.568726
											CHANNELS 6 Xposition Yposition Zposition Zrotation Yrotation Xrotation
											JOINT RightHandMiddle3
											{
												OFFSET 0.000000 0.000000 3.654984
												CHANNELS 6 Xposition Yposition Zposition Zrotation Yrotation Xrotation
												JOINT RightHandMiddle4
												{
													OFFSET 0.000000 0.000000 2.741241
													CHANNELS 6 Xposition Yposition Zposition Zrotation Yrotation Xrotation
													End Site
													{
														OFFSET 0.000000 0.000000 0.100006
													}
												}
											}
										}
									}
									JOINT RightHandRing1
									{
										OFFSET 0.086761 2.267456 8.921707
										CHANNELS 6 Xposition Yposition Zposition Zrotation Yrotation Xrotation
										JOINT RightHandRing2
										{
											OFFSET 0.000000 0.000000 4.061096
											CHANNELS 6 Xposition Yposition Zposition Zrotation Yrotation Xrotation
											JOINT RightHandRing3
											{
												OFFSET 0.000000 0.000000 3.654984
												CHANNELS 6 Xposition Yposition Zposition Zrotation Yrotation Xrotation
												JOINT RightHandRing4
												{
													OFFSET 0.000000 0.000000 2.741241
													CHANNELS 6 Xposition Yposition Zposition Zrotation Yrotation Xrotation
													End Site
													{
														OFFSET 0.000000 0.000000 0.100006
													}
												}
											}
										}
									}
									JOINT RightHandPinky1
									{
										OFFSET -0.173492 4.467224 7.976990
										CHANNELS 6 Xposition Yposition Zposition Zrotation Yrotation Xrotation
										JOINT RightHandPinky2
										{
											OFFSET 0.000000 0.000000 3.350403
											CHANNELS 6 Xposition Yposition Zposition Zrotation Yrotation Xrotation
											JOINT RightHandPinky3
											{
												OFFSET 0.000000 0.000000 2.842758
												CHANNELS 6 Xposition Yposition Zposition Zrotation Yrotation Xrotation
												JOINT RightHandPinky4
												{
													OFFSET 0.000000 0.000000 2.639709
													CHANNELS 6 Xposition Yposition Zposition Zrotation Yrotation Xrotation
													End Site
													{
														OFFSET 0.000000 0.000000 0.100006
													}
												}
											}
										}
									}
									JOINT RightForeArmEnd
									{
										OFFSET 0.000000 0.000000 0.000000
										CHANNELS 6 Xposition Yposition Zposition Zrotation Yrotation Xrotation
										End Site
										{
											OFFSET 0.000000 0.000000 0.100006
										}
									}
								}
								JOINT RightArmEnd
								{
									OFFSET 0.000000 0.000000 0.000000
									CHANNELS 6 Xposition Yposition Zposition Zrotation Yrotation Xrotation
									End Site
									{
										OFFSET 0.000000 0.000000 0.100006
									}
								}
							}
						}
					}
					JOINT LeftShoulder
					{
						OFFSET 2.625397 0.000000 11.175217
						CHANNELS 6 Xposition Yposition Zposition Zrotation Yrotation Xrotation
						JOINT LeftArm
						{
							OFFSET 0.000000 0.000000 10.813629
							CHANNELS 6 Xposition Yposition Zposition Zrotation Yrotation Xrotation
							JOINT LeftForeArm
							{
								OFFSET 0.000000 0.000000 28.724777
								CHANNELS 6 Xposition Yposition Zposition Zrotation Yrotation Xrotation
								JOINT LeftHand
								{
									OFFSET 0.644379 0.328857 25.716171
									CHANNELS 6 Xposition Yposition Zposition Zrotation Yrotation Xrotation
									JOINT LeftHandThumb1
									{
										OFFSET 2.867310 -2.944275 3.959564
										CHANNELS 6 Xposition Yposition Zposition Zrotation Yrotation Xrotation
										JOINT LeftHandThumb2
										{
											OFFSET 0.000000 0.000000 3.350403
											CHANNELS 6 Xposition Yposition Zposition Zrotation Yrotation Xrotation
											JOINT LeftHandThumb3
											{
												OFFSET 0.000000 0.000000 3.756516
												CHANNELS 6 Xposition Yposition Zposition Zrotation Yrotation Xrotation
												JOINT LeftHandThumb4
												{
													OFFSET 0.000000 0.000000 3.100006
													CHANNELS 6 Xposition Yposition Zposition Zrotation Yrotation Xrotation
													End Site
													{
														OFFSET 0.000000 0.000000 0.100006
													}
												}
											}
										}
									}
									JOINT LeftHandIndex1
									{
										OFFSET 0.086761 -2.345276 10.030899
										CHANNELS 6 Xposition Yposition Zposition Zrotation Yrotation Xrotation
										JOINT LeftHandIndex2
										{
											OFFSET 0.000000 0.000000 4.061096
											CHANNELS 6 Xposition Yposition Zposition Zrotation Yrotation Xrotation
											JOINT LeftHandIndex3
											{
												OFFSET 0.000000 0.000000 3.248871
												CHANNELS 6 Xposition Yposition Zposition Zrotation Yrotation Xrotation
												JOINT LeftHandIndex4
												{
													OFFSET 0.000000 0.000000 2.639709
													CHANNELS 6 Xposition Yposition Zposition Zrotation Yrotation Xrotation
													End Site
													{
														OFFSET 0.000000 0.000000 0.100006
													}
												}
											}
										}
									}
									JOINT LeftHandMiddle1
									{
										OFFSET -0.104095 -0.006775 9.502945
										CHANNELS 6 Xposition Yposition Zposition Zrotation Yrotation Xrotation
										JOINT LeftHandMiddle2
										{
											OFFSET 0.000000 0.000000 4.568726
											CHANNELS 6 Xposition Yposition Zposition Zrotation Yrotation Xrotation
											JOINT LeftHandMiddle3
											{
												OFFSET 0.000000 0.000000 3.654984
												CHANNELS 6 Xposition Yposition Zposition Zrotation Yrotation Xrotation
												JOINT LeftHandMiddle4
												{
													OFFSET 0.000000 0.000000 2.741241
													CHANNELS 6 Xposition Yposition Zposition Zrotation Yrotation Xrotation
													End Site
													{
														OFFSET 0.000000 0.000000 0.100006
													}
												}
											}
										}
									}
									JOINT LeftHandRing1
									{
										OFFSET -0.086761 2.267456 8.921707
										CHANNELS 6 Xposition Yposition Zposition Zrotation Yrotation Xrotation
										JOINT LeftHandRing2
										{
											OFFSET 0.000000 0.000000 4.061096
											CHANNELS 6 Xposition Yposition Zposition Zrotation Yrotation Xrotation
											JOINT LeftHandRing3
											{
												OFFSET 0.000000 0.000000 3.654984
												CHANNELS 6 Xposition Yposition Zposition Zrotation Yrotation Xrotation
												JOINT LeftHandRing4
												{
													OFFSET 0.000000 0.000000 2.741241
													CHANNELS 6 Xposition Yposition Zposition Zrotation Yrotation Xrotation
													End Site
													{
														OFFSET 0.000000 0.000000 0.100006
													}
												}
											}
										}
									}
									JOINT LeftHandPinky1
									{
										OFFSET 0.173492 4.467224 7.976990
										CHANNELS 6 Xposition Yposition Zposition Zrotation Yrotation Xrotation
										JOINT LeftHandPinky2
										{
											OFFSET 0.000000 0.000000 3.350403
											CHANNELS 6 Xposition Yposition Zposition Zrotation Yrotation Xrotation
											JOINT LeftHandPinky3
											{
												OFFSET 0.000000 0.000000 2.842758
												CHANNELS 6 Xposition Yposition Zposition Zrotation Yrotation Xrotation
												JOINT LeftHandPinky4
												{
													OFFSET 0.000000 0.000000 2.639709
													CHANNELS 6 Xposition Yposition Zposition Zrotation Yrotation Xrotation
													End Site
													{
														OFFSET 0.000000 0.000000 0.100006
													}
												}
											}
										}
									}
									JOINT LeftForeArmEnd
									{
										OFFSET 0.000000 0.000000 0.000000
										CHANNELS 6 Xposition Yposition Zposition Zrotation Yrotation Xrotation
										End Site
										{
											OFFSET 0.000000 0.000000 0.100006
										}
									}
								}
								JOINT LeftArmEnd
								{
									OFFSET 0.000000 0.000000 0.000000
									CHANNELS 6 Xposition Yposition Zposition Zrotation Yrotation Xrotation
									End Site
									{
										OFFSET 0.000000 0.000000 0.100006
									}
								}
							}
						}
					}
				}
			}
		}
	}
	JOINT RightUpLeg
	{
		OFFSET -11.289948 0.000000 0.000000
		CHANNELS 6 Xposition Yposition Zposition Zrotation Yrotation Xrotation
		JOINT RightLeg
		{
			OFFSET 0.000000 0.000000 -38.200329
			CHANNELS 6 Xposition Yposition Zposition Zrotation Yrotation Xrotation
			JOINT RightFoot
			{
				OFFSET 0.000000 0.000000 -39.900856
				CHANNELS 6 Xposition Yposition Zposition Zrotation Yrotation Xrotation
				JOINT RightToeBase
				{
					OFFSET 0.000000 -15.261658 0.000001
					CHANNELS 6 Xposition Yposition Zposition Zrotation Yrotation Xrotation
					JOINT RightToeBaseEnd
					{
						OFFSET 0.000000 -7.370728 0.000001
						CHANNELS 6 Xposition Yposition Zposition Zrotation Yrotation Xrotation
						End Site
						{
							OFFSET 0.000000 0.000000 0.100000
						}
					}
				}
				JOINT RightLegEnd
				{
					OFFSET 0.000000 0.000000 0.000000
					CHANNELS 6 Xposition Yposition Zposition Zrotation Yrotation Xrotation
					End Site
					{
						OFFSET 0.000000 0.000000 0.100000
					}
				}
			}
			JOINT RightUpLegEnd
			{
				OFFSET 0.000000 0.000000 0.000000
				CHANNELS 6 Xposition Yposition Zposition Zrotation Yrotation Xrotation
				End Site
				{
					OFFSET 0.000000 0.000000 0.099998
				}
			}
		}
	}
	JOINT LeftUpLeg
	{
		OFFSET 11.315674 0.000000 0.000000
		CHANNELS 6 Xposition Yposition Zposition Zrotation Yrotation Xrotation
		JOINT LeftLeg
		{
			OFFSET 0.000000 0.000000 -38.200329
			CHANNELS 6 Xposition Yposition Zposition Zrotation Yrotation Xrotation
			JOINT LeftFoot
			{
				OFFSET 0.000000 0.000000 -39.900856
				CHANNELS 6 Xposition Yposition Zposition Zrotation Yrotation Xrotation
				JOINT LeftToeBase
				{
					OFFSET 0.000000 -15.261658 0.000001
					CHANNELS 6 Xposition Yposition Zposition Zrotation Yrotation Xrotation
					JOINT LeftToeBaseEnd
					{
						OFFSET 0.000000 -7.539978 0.000001
						CHANNELS 6 Xposition Yposition Zposition Zrotation Yrotation Xrotation
						End Site
						{
							OFFSET 0.000000 0.000000 0.100000
						}
					}
				}
				JOINT LeftLegEnd
				{
					OFFSET 0.000000 0.000000 0.000000
					CHANNELS 6 Xposition Yposition Zposition Zrotation Yrotation Xrotation
					End Site
					{
						OFFSET 0.000000 0.000000 0.100000
					}
				}
			}
			JOINT LeftUpLegEnd
			{
				OFFSET 0.000000 0.000000 0.000000
				CHANNELS 6 Xposition Yposition Zposition Zrotation Yrotation Xrotation
				End Site
				{
					OFFSET 0.000000 0.000000 0.099998
				}
			}
		}
	}
}
MOTION
Frames: 2
Frame Time: 0.016667
38.833466 -55.757263 87.086823 -17.869339 -1.114436 -5.475679 0.000015 2.080061 8.814237 -0.293734 0.155833 2.351031 0.000015 0.000001 8.844143 0.224593 -1.178242 1.403131 -0.000006 0.000022 11.682281 2.747912 -1.685727 1.233832 -0.000023 -0.000006 11.746706 1.327216 -3.915817 0.385049 0.000014 0.000055 17.658281 4.798332 -0.546732 7.717963 0.000004 0.000027 5.101501 3.670432 -1.372462 -0.164033 0.000004 0.000032 5.101521 0.485537 -0.436222 -9.690689 -0.000033 -0.000002 11.655091 0.000000 0.000001 -0.000000 -2.625397 0.000044 11.175226 12.720509 -65.586803 -0.094060 -0.000008 -0.000008 10.434723 36.734598 -13.691019 8.380260 -0.000011 0.000046 29.628395 22.678385 -0.002098 99.238872 -0.000031 -0.000051 22.857605 -4.295791 27.982228 -17.100007 -2.867283 -2.944290 3.959549 31.758020 -23.132112 43.104275 -0.000023 -0.000038 3.350410 -25.758165 11.067897 -44.071126 -0.000004 0.000038 3.756535 -17.006288 9.862970 -30.019685 -0.000013 0.000018 3.147343 -0.000002 0.000001 -0.000002 -0.086773 -2.345281 10.030865 -0.494363 -61.017229 4.241063 0.000006 0.000014 4.061089 2.305267 -42.066428 -7.286958 0.000025 0.000004 3.248867 2.805284 -42.066479 -7.286967 -0.000006 0.000002 2.639697 -0.000000 -0.000003 0.000001 0.104088 -0.006783 9.502911 -6.358288 -49.088518 -0.271353 0.000010 -0.000010 4.568737 0.160956 -34.951072 -2.099201 -0.000001 -0.000030 3.654993 0.660964 -34.951055 -2.099203 -0.000021 0.000000 2.741261 -0.000000 -0.000002 0.000000 0.086777 2.267443 8.921707 -8.690483 -21.426928 -4.414480 0.000009 0.000010 4.061105 0.877756 -14.917927 0.933655 -0.000004 -0.000010 3.654965 -0.122240 -14.917936 0.933661 -0.000002 0.000004 2.741226 -0.000000 -0.000000 0.000000 -0.173489 4.467199 7.976952 -9.968284 17.356885 -11.198595 0.000006 -0.000023 3.350405 2.091727 -0.000935 0.000108 -0.000014 0.000015 2.842791 0.077052 -0.000001 -0.000081 -0.000003 -0.000001 2.639725 -0.000000 -0.000002 -0.000000 -0.000005 0.000004 -0.000034 -0.000000 -0.000000 -0.000000 0.000014 0.000013 0.000010 -0.000002 0.000000 -0.000001 2.625412 0.000027 11.175227 -10.160775 66.732178 -0.392518 0.000008 0.000022 10.813629 -39.805014 17.005052 -18.188698 -0.000011 0.000023 28.724764 -18.764447 0.897801 117.645268 0.644371 0.328846 25.716190 -26.482418 -22.519661 -5.112087 2.867319 -2.944275 3.959595 -31.852652 23.703219 42.324613 -0.000015 0.000000 3.350388 27.020481 -11.066232 -46.082866 -0.000015 -0.000015 3.756557 17.852813 -10.075333 -31.395016 0.000002 -0.000072 3.099998 0.000001 0.000000 -0.000003 0.086744 -2.345264 10.030922 38.282271 60.647271 40.626969 0.000017 -0.000010 4.061096 3.183240 46.585496 8.542481 -0.000004 0.000000 3.248871 3.683222 46.585428 8.542435 0.000008 -0.000004 2.639681 0.000001 0.000001 -0.000000 -0.104092 -0.006763 9.502945 22.403622 56.686192 22.838090 -0.000017 -0.000014 4.568750 0.505005 41.467690 2.654536 0.000005 -0.000003 3.654997 1.005026 41.467670 2.654540 -0.000007 0.000013 2.741245 -0.000000 0.000001 -0.000000 -0.086753 2.267449 8.921692 4.220913 47.223832 5.522153 0.000001 -0.000020 4.061073 0.315489 33.212744 -2.294926 -0.000024 -0.000022 3.654976 -0.684497 33.212813 -2.294920 -0.000026 0.000012 2.741258 -0.000001 -0.000002 -0.000003 0.173492 4.467197 7.977011 -9.018160 32.203003 -3.619620 -0.000027 0.000026 3.350410 1.088720 22.410650 -4.597750 -0.000001 -0.000014 2.842785 -0.911294 22.410522 -4.597750 0.000001 -0.000001 2.639712 -0.000000 -0.000000 0.000000 0.000008 -0.000028 0.000011 0.000005 -0.000000 0.000001 0.000001 -0.000032 0.000016 -0.000002 0.000000 0.000002 -11.289961 0.000002 -0.000004 13.266149 -1.516907 -8.649244 -0.000013 0.000062 -38.200325 -0.121323 0.071858 30.637380 -0.000004 0.000096 -39.900856 -3.135038 4.504155 10.543872 0.000013 -15.261651 0.000004 -0.524121 0.781414 -23.083521 -0.000003 -7.370665 0.000000 -0.000000 0.000000 -0.000000 -0.000005 0.000054 -0.000006 0.000001 -0.000000 -0.000000 -0.000003 0.000000 -0.000009 0.000000 0.000000 0.000002 11.315666 0.000069 -0.000002 15.220938 2.893371 -2.837553 -0.000022 0.000101 -38.200287 0.119857 -0.055877 24.994179 -0.000020 0.000007 -39.900864 11.276278 -0.621466 10.300274 -0.000012 -15.261600 0.000003 -0.606006 -0.396237 -20.282477 0.000004 -7.539977 0.000000 -0.000000 -0.000000 0.000001 0.000005 0.000003 -0.000001 -0.000000 0.000000 0.000003 0.000000 0.000064 0.000001 -0.000000 0.000000 0.000002 
38.841949 -55.818542 87.024551 -17.479424 -1.458729 -5.374072 -0.000003 2.080062 8.814247 -0.319323 0.201701 2.361671 -0.000008 0.000018 8.844145 0.189183 -1.196565 1.383389 0.000010 0.000020 11.682267 2.623698 -1.583295 1.246738 -0.000008 0.000023 11.746711 1.247201 -3.559016 0.395997 -0.000014 -0.000006 17.658287 5.141667 1.347022 7.750666 0.000015 0.000032 5.101526 3.577502 -1.248517 -0.341334 -0.000000 0.000025 5.101542 0.521419 -0.439206 -9.677203 -0.000025 0.000001 11.655077 -0.000000 -0.000000 0.000000 -2.625427 -0.000017 11.175233 12.418448 -66.254652 -0.101643 -0.000004 -0.000015 10.434715 35.901499 -13.701773 5.758483 0.000000 0.000000 29.628418 22.012866 0.021550 105.267627 0.000021 -0.000023 22.857605 -5.033820 28.848742 -16.543237 -2.867254 -2.944244 3.959595 31.788052 -23.322017 42.844243 0.000008 0.000038 3.350426 -26.178949 11.072161 -44.741738 -0.000004 0.000008 3.756519 -17.287800 9.935969 -30.477653 -0.000006 -0.000007 3.147352 0.000001 -0.000000 -0.000000 -0.086720 -2.345265 10.030912 -0.664084 -61.876009 3.913131 -0.000040 -0.000024 4.061100 2.416459 -42.701431 -7.451903 -0.000044 0.000021 3.248901 2.916448 -42.701397 -7.451897 0.000004 0.000001 2.639708 -0.000000 -0.000002 -0.000001 0.104088 -0.006781 9.502961 -6.537835 -49.666673 -0.212293 0.000039 -0.000004 4.568737 0.179672 -35.365637 -2.131723 -0.000007 0.000008 3.654970 0.679687 -35.365613 -2.131721 -0.000009 0.000006 2.741245 -0.000001 -0.000002 -0.000000 0.086807 2.267437 8.921703 -8.503154 -20.527666 -3.513233 0.000015 -0.000001 4.061084 0.887446 -14.330845 0.895291 -0.000011 0.000022 3.654979 -0.112552 -14.330847 0.895309 0.000011 0.000000 2.741239 0.000000 -0.000000 -0.000000 -0.173485 4.467199 7.976974 -9.991312 18.022945 -9.825280 0.000014 -0.000020 3.350422 2.091799 -0.000720 0.000116 -0.000012 -0.000003 2.842779 0.077137 0.000003 -0.000080 -0.000001 -0.000000 2.639726 -0.000000 0.000001 -0.000000 -0.000000 -0.000008 0.000010 0.000001 -0.000000 -0.000000 -0.000001 -0.000011 0.000038 0.000001 0.000000 -0.000001 2.625397 0.000000 11.175246 -9.975054 67.438303 -0.375959 0.000031 -0.000006 10.813644 -42.151771 17.022810 -19.023527 -0.000046 0.000000 28.724766 -17.887376 0.914812 120.251272 0.644363 0.328850 25.716145 -23.480421 -24.535643 -4.078592 2.867268 -2.944244 3.959595 -31.887356 23.894239 42.064895 -0.000008 0.000015 3.350407 27.441178 -11.055991 -46.753424 0.000015 0.000023 3.756546 18.136174 -10.141699 -31.854278 -0.000010 0.000006 3.100008 -0.000003 -0.000001 0.000001 0.086744 -2.345266 10.030945 40.625381 62.007189 43.762873 0.000015 -0.000013 4.061085 3.478788 47.890216 8.944993 0.000002 -0.000008 3.248886 3.978796 47.890213 8.945001 -0.000006 -0.000009 2.639724 0.000001 0.000001 -0.000003 -0.104074 -0.006791 9.502960 23.820555 58.328641 24.753579 0.000010 0.000008 4.568733 0.587659 42.759986 2.777760 0.000007 0.000006 3.655010 1.087662 42.760007 2.777764 -0.000016 0.000006 2.741266 0.000000 0.000001 0.000001 -0.086762 2.267441 8.921703 4.717745 49.117451 6.146927 0.000017 0.000010 4.061106 0.249955 34.536759 -2.412506 -0.000002 -0.000003 3.654972 -0.750031 34.536763 -2.412491 -0.000027 0.000006 2.741262 -0.000002 -0.000003 -0.000001 0.173462 4.467213 7.977036 -8.895923 33.978934 -3.585824 0.000006 0.000013 3.350399 0.981403 23.602963 -4.872284 0.000028 -0.000015 2.842743 -1.018586 23.603054 -4.872287 -0.000001 0.000003 2.639735 -0.000000 0.000001 0.000001 0.000018 0.000013 0.000042 -0.000002 0.000001 0.000001 -0.000004 0.000020 0.000005 -0.000003 -0.000002 -0.000000 -11.289968 -0.000008 -0.000002 13.488287 -1.205219 -8.904589 -0.000002 0.000057 -38.200325 -0.093608 0.056857 31.271635 -0.000010 -0.000005 -39.900848 -3.771754 4.381998 10.166270 -0.000008 -15.261726 0.000007 -0.559030 0.832534 -23.062873 -0.000002 -7.370664 0.000001 -0.000000 -0.000000 0.000000 -0.000002 -0.000002 0.000000 0.000000 0.000000 0.000002 -0.000001 -0.000001 -0.000004 -0.000000 0.000000 -0.000000 11.315665 0.000056 -0.000006 15.155179 3.243472 -2.962535 -0.000058 0.000036 -38.200291 0.130985 -0.061743 25.211215 -0.000036 0.000007 -39.900860 10.962529 -0.611589 10.342227 -0.000014 -15.261615 -0.000003 -0.628566 -0.348955 -20.352388 -0.000003 -7.539979 0.000002 0.000000 -0.000000 -0.000000 0.000002 -0.000063 0.000001 0.000000 0.000000 0.000000 -0.000000 -0.000002 -0.000009 0.000000 0.000000 0.000001 
